<svg width="50" height="40" viewBox="0 0 50 40" fill="none" xmlns="http://www.w3.org/2000/svg">
<path d="M22.1897 30.7478C23.932 32.4901 25.7931 34.1136 27.6938 35.5391C26.3079 36.6875 24.9219 37.7566 23.5162 38.7267C21.3581 40.2513 18.5071 40.2513 16.349 38.7267C13.5375 36.7666 10.7657 34.4304 8.09282 31.7773C5.43976 29.1045 3.10349 26.3128 1.14339 23.5212C-0.38113 21.3631 -0.38113 18.512 1.14339 16.3539C3.10349 13.5425 5.43976 10.7508 8.09282 8.09777C10.7657 5.42491 13.5375 3.08864 16.349 1.12854C18.5071 -0.37618 21.3581 -0.37618 23.5162 1.12854C24.9219 2.09869 26.3079 3.16783 27.6938 4.33597C25.7733 5.7417 23.932 7.36521 22.1897 9.10752C20.0316 11.2656 18.0913 13.5623 16.4282 15.9382C14.7651 18.3338 14.7651 21.5413 16.4282 23.9171C18.1111 26.293 20.0316 28.6095 22.1897 30.7478Z" fill="#F36F5A"/>
<path d="M49.4222 21.7786C47.7746 24.1538 45.8274 26.4434 43.6662 28.6046C41.5264 30.7657 39.2154 32.6916 36.8616 34.3606C35.7489 35.1309 34.2511 35.1309 33.1384 34.3606C32.9244 34.2108 32.689 34.0396 32.475 33.8685C30.3566 32.3278 28.281 30.5518 26.3338 28.6046C24.1726 26.4434 22.2468 24.1538 20.5777 21.8C19.8074 20.6873 19.8074 19.1894 20.5777 18.0767C22.2468 15.7016 24.1726 13.412 26.3338 11.2508C28.281 9.30358 30.3566 7.52755 32.475 6.00829C32.689 5.83711 32.9244 5.66592 33.1384 5.51614C33.6947 5.13097 34.358 4.91699 35 4.91699C35.6419 4.91699 36.3053 5.13097 36.8616 5.51614C39.2368 7.16378 41.5264 9.111 43.6662 11.2508C45.806 13.3906 47.7532 15.7016 49.4222 18.0767C50.1925 19.1894 50.1925 20.6659 49.4222 21.7786Z" fill="url(#paint0_linear_50_2051)"/>
<defs>
<linearGradient id="paint0_linear_50_2051" x1="28.4331" y1="22.9794" x2="55.0049" y2="14.0145" gradientUnits="userSpaceOnUse">
<stop stop-color="#0DBAD0"/>
<stop offset="0.5" stop-color="#03B1CA"/>
<stop offset="0.51" stop-color="#0696B8"/>
<stop offset="1" stop-color="#067DA6"/>
</linearGradient>
</defs>
</svg>
