<svg width="48" height="49" viewBox="0 0 48 49" fill="none" xmlns="http://www.w3.org/2000/svg">
<path d="M48 24.5142C48 29.9074 47.5456 35.102 46.6935 39.9276C46.0402 43.6461 43.1432 46.5414 39.4225 47.1943C34.5941 48.0458 29.3964 48.5 24 48.5C18.6035 48.5 13.4059 48.0458 8.57751 47.1943C4.8568 46.5414 1.95976 43.6461 1.30651 39.9276C0.454438 35.102 0 29.9074 0 24.5142C0 19.1209 0.454438 13.9264 1.30651 9.10083C1.90296 5.38232 4.8 2.4586 8.52071 1.80574C13.3775 0.954169 18.5751 0.5 23.9716 0.5C29.368 0.5 34.5657 0.954169 39.3941 1.80574C43.1148 2.4586 46.0118 5.35393 46.6651 9.07244C47.5172 13.898 47.9716 19.0925 47.9716 24.4858L48 24.5142Z" fill="#EAF9FB"/>
<g clip-path="url(#clip0_654_6511)">
<path d="M33.4942 22.8603H33.4078V20.7768C33.4072 20.1851 33.1718 19.6178 32.7534 19.1994C32.335 18.781 31.7677 18.5456 31.1759 18.5449H24.7771V16.5106C25.3434 16.3258 25.8251 15.9451 26.1358 15.4369C26.4465 14.9287 26.5658 14.3263 26.4722 13.7381C26.3786 13.1498 26.0783 12.6142 25.6252 12.2275C25.1721 11.8408 24.596 11.6284 24.0004 11.6284C23.4047 11.6284 22.8286 11.8408 22.3755 12.2275C21.9225 12.6142 21.6222 13.1498 21.5286 13.7381C21.435 14.3263 21.5542 14.9287 21.8649 15.4369C22.1756 15.9451 22.6574 16.3258 23.2236 16.5106V18.5449H16.8248C16.2331 18.5456 15.6658 18.781 15.2474 19.1994C14.829 19.6178 14.5936 20.1851 14.5929 20.7768V22.8603H14.5066C13.6139 22.8603 12.7577 23.2149 12.1265 23.8461C11.4953 24.4774 11.1406 25.3335 11.1406 26.2262C11.1406 27.1189 11.4953 27.9751 12.1265 28.6063C12.7577 29.2376 13.6139 29.5922 14.5066 29.5922H14.5929V31.6757C14.5936 32.2674 14.829 32.8347 15.2474 33.2531C15.6658 33.6715 16.2331 33.9069 16.8248 33.9076H20.416L19.7946 36.3949C19.766 36.5094 19.7639 36.6289 19.7884 36.7444C19.8129 36.8598 19.8634 36.9681 19.936 37.0611C20.0087 37.1541 20.1015 37.2294 20.2076 37.2811C20.3136 37.3329 20.4301 37.3598 20.5481 37.3598H27.4527C27.5707 37.3598 27.6871 37.3329 27.7932 37.2811C27.8992 37.2294 27.9921 37.1541 28.0647 37.0611C28.1373 36.9681 28.1878 36.8598 28.2123 36.7444C28.2368 36.6289 28.2347 36.5094 28.2061 36.3949L27.5847 33.9076H31.1759C31.7677 33.9069 32.335 33.6715 32.7534 33.2531C33.1718 32.8347 33.4072 32.2674 33.4078 31.6757V29.5922H33.4942C34.3869 29.5922 35.243 29.2376 35.8743 28.6063C36.5055 27.9751 36.8601 27.1189 36.8601 26.2262C36.8601 25.3335 36.5055 24.4774 35.8743 23.8461C35.243 23.2149 34.3869 22.8603 33.4942 22.8603ZM24.0004 13.1939C24.1881 13.1939 24.3717 13.2495 24.5278 13.3539C24.6839 13.4582 24.8056 13.6065 24.8775 13.7799C24.9493 13.9534 24.9681 14.1443 24.9315 14.3285C24.8949 14.5126 24.8045 14.6818 24.6717 14.8146C24.5389 14.9473 24.3698 15.0377 24.1856 15.0744C24.0014 15.111 23.8105 15.0922 23.6371 15.0204C23.4636 14.9485 23.3153 14.8268 23.211 14.6707C23.1067 14.5146 23.051 14.331 23.051 14.1432C23.051 13.8915 23.151 13.65 23.3291 13.4719C23.5071 13.2939 23.7486 13.1939 24.0004 13.1939ZM14.5066 28.0387C14.0259 28.0387 13.5649 27.8477 13.225 27.5078C12.8851 27.1679 12.6942 26.7069 12.6942 26.2262C12.6942 25.7455 12.8851 25.2845 13.225 24.9446C13.5649 24.6047 14.0259 24.4138 14.5066 24.4138H14.5929V28.0387H14.5066ZM26.4575 35.8063H21.5432L22.0179 33.9076H25.9854L26.4575 35.8063ZM31.8543 31.6757C31.8543 31.8556 31.7828 32.0281 31.6556 32.1553C31.5284 32.2826 31.3559 32.354 31.1759 32.354H16.8248C16.6449 32.354 16.4723 32.2826 16.3451 32.1553C16.2179 32.0281 16.1464 31.8556 16.1464 31.6757V20.7768C16.1464 20.5969 16.2179 20.4243 16.3451 20.2971C16.4723 20.1699 16.6449 20.0984 16.8248 20.0984H31.1759C31.3559 20.0984 31.5284 20.1699 31.6556 20.2971C31.7828 20.4243 31.8543 20.5969 31.8543 20.7768V31.6757ZM33.4942 28.0387H33.4078V24.4138H33.4942C33.7322 24.4138 33.9678 24.4607 34.1877 24.5517C34.4076 24.6428 34.6074 24.7763 34.7757 24.9446C34.944 25.1129 35.0776 25.3127 35.1686 25.5326C35.2597 25.7525 35.3066 25.9882 35.3066 26.2262C35.3066 26.4642 35.2597 26.6999 35.1686 26.9198C35.0776 27.1397 34.944 27.3395 34.7757 27.5078C34.6074 27.6761 34.4076 27.8096 34.1877 27.9007C33.9678 27.9918 33.7322 28.0387 33.4942 28.0387Z" fill="#148FB3"/>
<path d="M23.0507 24.5C23.0507 24.0049 22.9039 23.521 22.6289 23.1094C22.3539 22.6978 21.963 22.377 21.5056 22.1876C21.0483 21.9982 20.5451 21.9486 20.0595 22.0452C19.574 22.1417 19.128 22.3801 18.778 22.7302C18.428 23.0802 18.1896 23.5262 18.093 24.0117C17.9964 24.4972 18.046 25.0004 18.2354 25.4578C18.4249 25.9151 18.7457 26.306 19.1573 26.5811C19.5689 26.8561 20.0528 27.0029 20.5478 27.0029C20.8765 27.0029 21.202 26.9381 21.5056 26.8124C21.8093 26.6866 22.0852 26.5022 22.3176 26.2698C22.5501 26.0374 22.7344 25.7615 22.8602 25.4578C22.986 25.1541 23.0507 24.8287 23.0507 24.5ZM20.5478 25.4494C20.3601 25.4494 20.1765 25.3937 20.0204 25.2894C19.8643 25.185 19.7426 25.0368 19.6707 24.8633C19.5989 24.6898 19.5801 24.4989 19.6167 24.3148C19.6533 24.1306 19.7437 23.9614 19.8765 23.8287C20.0093 23.6959 20.1785 23.6055 20.3626 23.5688C20.5468 23.5322 20.7377 23.551 20.9111 23.6229C21.0846 23.6947 21.2329 23.8164 21.3372 23.9725C21.4415 24.1287 21.4972 24.3122 21.4972 24.5C21.4972 24.6246 21.4726 24.7481 21.4249 24.8633C21.3772 24.9785 21.3073 25.0831 21.2191 25.1713C21.131 25.2594 21.0263 25.3294 20.9111 25.3771C20.796 25.4248 20.6725 25.4494 20.5478 25.4494Z" fill="#148FB3"/>
<path d="M27.4521 21.9971C26.9571 21.9971 26.4732 22.1439 26.0616 22.4189C25.65 22.6939 25.3292 23.0848 25.1397 23.5422C24.9503 23.9995 24.9007 24.5028 24.9973 24.9883C25.0939 25.4738 25.3323 25.9198 25.6823 26.2698C26.0323 26.6198 26.4783 26.8582 26.9638 26.9548C27.4493 27.0514 27.9526 27.0018 28.4099 26.8124C28.8673 26.6229 29.2582 26.3021 29.5332 25.8905C29.8082 25.4789 29.955 24.995 29.955 24.5C29.955 23.8362 29.6913 23.1995 29.2219 22.7302C28.7526 22.2608 28.1159 21.9971 27.4521 21.9971ZM27.4521 25.4494C27.2644 25.4494 27.0808 25.3937 26.9247 25.2894C26.7686 25.185 26.6469 25.0368 26.575 24.8633C26.5032 24.6898 26.4844 24.4989 26.521 24.3148C26.5576 24.1306 26.648 23.9614 26.7808 23.8287C26.9136 23.6959 27.0827 23.6055 27.2669 23.5688C27.4511 23.5322 27.642 23.551 27.8154 23.6229C27.9889 23.6947 28.1372 23.8164 28.2415 23.9725C28.3458 24.1287 28.4015 24.3122 28.4015 24.5C28.4015 24.6246 28.3769 24.7481 28.3292 24.8633C28.2815 24.9785 28.2116 25.0831 28.1234 25.1713C28.0353 25.2594 27.9306 25.3294 27.8154 25.3771C27.7003 25.4248 27.5768 25.4494 27.4521 25.4494Z" fill="#148FB3"/>
<path d="M25.7271 28.9019H22.2748C22.0688 28.9019 21.8712 28.9837 21.7256 29.1294C21.5799 29.275 21.498 29.4726 21.498 29.6786C21.498 29.8846 21.5799 30.0822 21.7256 30.2279C21.8712 30.3735 22.0688 30.4554 22.2748 30.4554H25.7271C25.9331 30.4554 26.1307 30.3735 26.2763 30.2279C26.422 30.0822 26.5039 29.8846 26.5039 29.6786C26.5039 29.4726 26.422 29.275 26.2763 29.1294C26.1307 28.9837 25.9331 28.9019 25.7271 28.9019Z" fill="#148FB3"/>
</g>
<defs>
<clipPath id="clip0_654_6511">
<rect width="26" height="26" fill="white" transform="translate(11 11.5)"/>
</clipPath>
</defs>
</svg>
